:FULLY-SPECIFIED
:FORCE-ALL-JOINTS-BE-3DOF
:DEGREES
114
root 9.24624 16.1048 -21.3208 5.02932 2.98205 4.65942
lfemur 9.65547 1.44604 -27.4815
ltibia 6.67271 -0 0
lfoot -15.42 2.24728 8.83644e-05
ltoes -5.06837 0 0
rfemur -37.6182 9.22302 8.47147
rtibia 34.6758 -0 0
rfoot -22.4777 -13.0688 0.00723731
rtoes -18.9804 0 0
lowerback -7.57846 -3.1377 -5.84124
upperback -1.26078 -3.77771 2.21646
thorax 3.48204 -1.96613 5.14874
lowerneck -20.2285 -5.04142 -12.8738
upperneck 20.8481 -5.8425 11.2998
head 10.7914 -2.38842 5.36665
lclavicle -4.69753e-14 -1.90833e-14 0
lhumerus -28.5473 -23.0211 94.0517
lradius 37.3439 -0 0
lwrist 8.50092 0 0
lhand -10.8501 -23.9949 0.00221206
lfingers 7.12502 -0 0
lthumb 15.1649 5.42887 0.00200957
rclavicle -4.69753e-14 -1.90833e-14 0
rhumerus -46.2309 8.55673 -84.4299
rradius 35.2085 -0 0
rwrist -19.0663 0 0
rhand -29.9568 -23.2597 -0.000117042
rfingers 7.12502 -0 0
rthumb -3.2757 -53.2139 -0.00013639
115
root 9.24375 16.0958 -21.1918 5.06587 3.31828 4.73195
lfemur 10.4629 1.40768 -27.4958
ltibia 6.00544 -0 0
lfoot -15.4201 2.02038 8.2091e-05
ltoes -5.20151 0 0
rfemur -38.0945 9.44219 8.1239
rtibia 33.8146 -0 0
rfoot -22.652 -13.0842 0.00672358
rtoes -19.2424 0 0
lowerback -7.65971 -3.20126 -5.90217
upperback -1.25272 -3.85232 2.20507
thorax 3.54798 -2.00595 5.16059
lowerneck -20.1594 -5.07487 -12.9132
upperneck 20.8839 -5.88345 11.2785
head 10.7979 -2.4149 5.35984
lclavicle -4.69753e-14 -1.90833e-14 0
lhumerus -28.6274 -23.3401 94.2882
lradius 37.6815 -0 0
lwrist 8.7126 0 0
lhand -10.8752 -24.0276 0.00205507
lfingers 7.12502 -0 0
lthumb 15.1407 5.39807 0.00186695
rclavicle -4.69753e-14 -1.90833e-14 0
rhumerus -46.314 8.39189 -84.2798
rradius 35.0533 -0 0
rwrist -18.9804 0 0
rhand -29.9332 -23.2615 -0.000108736
rfingers 7.12502 -0 0
rthumb -3.25286 -53.2161 -0.00012671
116
root 9.24125 16.0867 -21.0627 5.10286 3.65447 4.80471
lfemur 11.2704 1.36952 -27.5107
ltibia 5.33817 -0 0
lfoot -15.4203 1.79349 7.52477e-05
ltoes -5.33465 0 0
rfemur -38.5725 9.6585 7.77428
rtibia 32.9534 -0 0
rfoot -22.8263 -13.0995 0.00616317
rtoes -19.5043 0 0
lowerback -7.74089 -3.26491 -5.96301
upperback -1.24465 -3.92694 2.19367
thorax 3.61391 -2.04577 5.17241
lowerneck -20.0904 -5.10828 -12.9526
upperneck 20.9198 -5.92438 11.2572
head 10.8044 -2.44138 5.35303
lclavicle -4.69753e-14 -1.90833e-14 0
lhumerus -28.7092 -23.6587 94.5257
lradius 38.0191 -0 0
lwrist 8.92428 0 0
lhand -10.9002 -24.0603 0.00188381
lfingers 7.12502 -0 0
lthumb 15.1166 5.36726 0.00171137
rclavicle -4.69753e-14 -1.90833e-14 0
rhumerus -46.3975 8.22726 -84.1296
rradius 34.8981 -0 0
rwrist -18.8945 0 0
rhand -29.9095 -23.2634 -9.96745e-05
rfingers 7.12502 -0 0
rthumb -3.23002 -53.2183 -0.000116151
117
root 9.23876 16.0777 -20.9337 5.1403 3.99061 4.87772
lfemur 12.0778 1.33158 -27.5261
ltibia 4.6709 -0 0
lfoot -15.4204 1.56659 6.78347e-05
ltoes -5.46779 0 0
rfemur -39.0522 9.87192 7.42261
rtibia 32.0922 -0 0
rfoot -23.0006 -13.1149 0.00555608
rtoes -19.7662 0 0
lowerback -7.82201 -3.32865 -6.02376
upperback -1.23656 -4.00155 2.18226
thorax 3.67984 -2.08561 5.18417
lowerneck -20.0213 -5.14163 -12.992
upperneck 20.9557 -5.9653 11.2359
head 10.8108 -2.46785 5.34621
lclavicle -4.69753e-14 -1.90833e-14 0
lhumerus -28.7926 -23.9771 94.7643
lradius 38.3567 -0 0
lwrist 9.13595 0 0
lhand -10.9252 -24.0929 0.00169828
lfingers 7.12502 -0 0
lthumb 15.0925 5.33646 0.00154283
rclavicle -4.69753e-14 -1.90833e-14 0
rhumerus -46.4814 8.06285 -83.9791
rradius 34.7429 -0 0
rwrist -18.8086 0 0
rhand -29.8859 -23.2652 -8.9858e-05
rfingers 7.12502 -0 0
rthumb -3.20718 -53.2205 -0.000104712
